# xmcd
#
# Track frame offsets:
#	150
#	16586
#	31539
#	48115
#	63664
#	83368
#	98856
#	114440
#	134655
#	151012
#	171944
#	195259
#	212021
#	230183
#
# Disc length: 3323 seconds
#
# Revision: 0
# Processed by: cddbd v1.5.2PL0 Copyright (c) Steve Scherf et al.
# Submitted via: EasyCDDAExtractor 10.5.1.1
#
DISCID=a40cf90e
DTITLE=Inna - Hot The Remixes CD 01
DYEAR=2011
DGENRE=Electronic
TTITLE0=Hot
TTITLE1=10 Minutes
TTITLE2=Love
TTITLE3=Amazing
TTITLE4=Deja Vu (Bob Taylor and Inna)
TTITLE5=Days Nights
TTITLE6=Ferver
TTITLE7=Left Right
TTITLE8=Don't let the music die
TTITLE9=On and On
TTITLE10=Ladies
TTITLE11=Hot (Us radio version)
TTITLE12=On and On (Chillout mix)
TTITLE13=10 Minutes (Play and Win club remix)
EXTD=
EXTT0=
EXTT1=
EXTT2=
EXTT3=
EXTT4=
EXTT5=
EXTT6=
EXTT7=
EXTT8=
EXTT9=
EXTT10=
EXTT11=
EXTT12=
EXTT13=
PLAYORDER=
